%TF.GenerationSoftware,KiCad,Pcbnew,9.0.7*%
%TF.CreationDate,2026-04-02T16:43:37-07:00*%
%TF.ProjectId,WaterLevelDetector_v5_tiny,57617465-724c-4657-9665-6c4465746563,rev?*%
%TF.SameCoordinates,Original*%
%TF.FileFunction,Copper,L2,Bot*%
%TF.FilePolarity,Positive*%
%FSLAX46Y46*%
G04 Gerber Fmt 4.6, Leading zero omitted, Abs format (unit mm)*
G04 Created by KiCad (PCBNEW 9.0.7) date 2026-04-02 16:43:37*
%MOMM*%
%LPD*%
G01*
G04 APERTURE LIST*
G04 Aperture macros list*
%AMRoundRect*
0 Rectangle with rounded corners*
0 $1 Rounding radius*
0 $2 $3 $4 $5 $6 $7 $8 $9 X,Y pos of 4 corners*
0 Add a 4 corners polygon primitive as box body*
4,1,4,$2,$3,$4,$5,$6,$7,$8,$9,$2,$3,0*
0 Add four circle primitives for the rounded corners*
1,1,$1+$1,$2,$3*
1,1,$1+$1,$4,$5*
1,1,$1+$1,$6,$7*
1,1,$1+$1,$8,$9*
0 Add four rect primitives between the rounded corners*
20,1,$1+$1,$2,$3,$4,$5,0*
20,1,$1+$1,$4,$5,$6,$7,0*
20,1,$1+$1,$6,$7,$8,$9,0*
20,1,$1+$1,$8,$9,$2,$3,0*%
G04 Aperture macros list end*
%TA.AperFunction,ComponentPad*%
%ADD10R,1.800000X1.800000*%
%TD*%
%TA.AperFunction,ComponentPad*%
%ADD11C,1.800000*%
%TD*%
%TA.AperFunction,ComponentPad*%
%ADD12R,1.350000X1.350000*%
%TD*%
%TA.AperFunction,ComponentPad*%
%ADD13C,1.350000*%
%TD*%
%TA.AperFunction,ComponentPad*%
%ADD14R,2.000000X2.000000*%
%TD*%
%TA.AperFunction,ComponentPad*%
%ADD15C,2.000000*%
%TD*%
%TA.AperFunction,HeatsinkPad*%
%ADD16O,1.100000X1.700000*%
%TD*%
%TA.AperFunction,ComponentPad*%
%ADD17C,1.600000*%
%TD*%
%TA.AperFunction,ComponentPad*%
%ADD18RoundRect,0.250000X-0.550000X-0.550000X0.550000X-0.550000X0.550000X0.550000X-0.550000X0.550000X0*%
%TD*%
%TA.AperFunction,ViaPad*%
%ADD19C,0.600000*%
%TD*%
%TA.AperFunction,Conductor*%
%ADD20C,0.200000*%
%TD*%
G04 APERTURE END LIST*
D10*
%TO.P,D2,1,K*%
%TO.N,Net-(BZ1--)*%
X84500000Y-81000000D03*
D11*
%TO.P,D2,2,A*%
%TO.N,Net-(D2-A)*%
X84500000Y-83540000D03*
%TD*%
D12*
%TO.P,J2,1,Pin_1*%
%TO.N,unconnected-(J2-Pin_1-Pad1)*%
X99000000Y-135175000D03*
D13*
%TO.P,J2,2,Pin_2*%
%TO.N,Net-(BZ1--)*%
X101000000Y-135175000D03*
%TO.P,J2,3,Pin_3*%
%TO.N,Net-(J2-Pin_3)*%
X103000000Y-135175000D03*
%TO.P,J2,4,Pin_4*%
%TO.N,Net-(J1-Pin_4)*%
X105000000Y-135175000D03*
%TD*%
D10*
%TO.P,D1,1,K*%
%TO.N,Net-(BZ1--)*%
X94000000Y-81000000D03*
D11*
%TO.P,D1,2,A*%
%TO.N,Net-(D1-A)*%
X94000000Y-83540000D03*
%TD*%
D14*
%TO.P,BZ1,1,+*%
%TO.N,Net-(BZ1-+)*%
X85700000Y-97000000D03*
D15*
%TO.P,BZ1,2,-*%
%TO.N,Net-(BZ1--)*%
X93300000Y-97000000D03*
%TD*%
D16*
%TO.P,J3,S1,SHIELD*%
%TO.N,Net-(BZ1--)*%
X85680000Y-135000000D03*
X85680000Y-138800000D03*
X94320000Y-135000000D03*
X94320000Y-138800000D03*
%TD*%
D17*
%TO.P,U1,8,VCC*%
%TO.N,Net-(J1-Pin_4)*%
X93310000Y-108190000D03*
%TO.P,U1,7,PB2*%
%TO.N,Net-(U1-PB2)*%
X93310000Y-110730000D03*
%TO.P,U1,6,PB1*%
%TO.N,Net-(J2-Pin_3)*%
X93310000Y-113270000D03*
%TO.P,U1,5,AREF/PB0*%
%TO.N,Net-(J1-Pin_3)*%
X93310000Y-115810000D03*
%TO.P,U1,4,GND*%
%TO.N,Net-(BZ1--)*%
X85690000Y-115810000D03*
%TO.P,U1,3,XTAL2/PB4*%
%TO.N,Net-(BZ1-+)*%
X85690000Y-113270000D03*
%TO.P,U1,2,XTAL1/PB3*%
%TO.N,Net-(U1-XTAL1{slash}PB3)*%
X85690000Y-110730000D03*
D18*
%TO.P,U1,1,~{RESET}/PB5*%
%TO.N,unconnected-(U1-~{RESET}{slash}PB5-Pad1)*%
X85690000Y-108190000D03*
%TD*%
D12*
%TO.P,J1,1,Pin_1*%
%TO.N,unconnected-(J1-Pin_1-Pad1)*%
X75000000Y-135175000D03*
D13*
%TO.P,J1,2,Pin_2*%
%TO.N,Net-(BZ1--)*%
X77000000Y-135175000D03*
%TO.P,J1,3,Pin_3*%
%TO.N,Net-(J1-Pin_3)*%
X79000000Y-135175000D03*
%TO.P,J1,4,Pin_4*%
%TO.N,Net-(J1-Pin_4)*%
X81000000Y-135175000D03*
%TD*%
D19*
%TO.N,Net-(BZ1--)*%
X83500000Y-130500000D03*
X89000000Y-86000000D03*
X87000000Y-117500000D03*
%TO.N,Net-(J1-Pin_4)*%
X91500000Y-132500000D03*
X83500000Y-127000000D03*
X88500000Y-132500000D03*
X105000000Y-127500000D03*
%TD*%
D20*
%TO.N,Net-(BZ1--)*%
X89000000Y-86000000D02*
X89000000Y-97000000D01*
X87000000Y-117500000D02*
X81500000Y-123000000D01*
X89000000Y-97000000D02*
X89000000Y-112500000D01*
X89000000Y-112500000D02*
X85690000Y-115810000D01*
X81500000Y-123000000D02*
X81500000Y-128500000D01*
X81500000Y-128500000D02*
X83500000Y-130500000D01*
X93300000Y-97000000D02*
X89000000Y-97000000D01*
%TO.N,Net-(J1-Pin_4)*%
X83500000Y-127000000D02*
X88500000Y-127000000D01*
X91500000Y-132500000D02*
X91500000Y-127500000D01*
X91500000Y-113000000D02*
X91000000Y-112500000D01*
X105000000Y-127500000D02*
X91500000Y-127500000D01*
X88500000Y-132500000D02*
X88500000Y-127000000D01*
X91500000Y-127500000D02*
X91500000Y-113000000D01*
X91000000Y-110500000D02*
X93310000Y-108190000D01*
X91000000Y-112500000D02*
X91000000Y-110500000D01*
X88500000Y-127000000D02*
X88500000Y-115000000D01*
X88500000Y-115000000D02*
X91000000Y-112500000D01*
%TD*%
M02*
