%TF.GenerationSoftware,KiCad,Pcbnew,9.0.7*%
%TF.CreationDate,2026-04-02T16:43:37-07:00*%
%TF.ProjectId,WaterLevelDetector_v5_tiny,57617465-724c-4657-9665-6c4465746563,rev?*%
%TF.SameCoordinates,Original*%
%TF.FileFunction,Legend,Top*%
%TF.FilePolarity,Positive*%
%FSLAX46Y46*%
G04 Gerber Fmt 4.6, Leading zero omitted, Abs format (unit mm)*
G04 Created by KiCad (PCBNEW 9.0.7) date 2026-04-02 16:43:37*
%MOMM*%
%LPD*%
G01*
G04 APERTURE LIST*
%ADD10C,0.150000*%
%ADD11C,0.120000*%
G04 APERTURE END LIST*
D10*
X89454819Y-129666666D02*
X88978628Y-129999999D01*
X89454819Y-130238094D02*
X88454819Y-130238094D01*
X88454819Y-130238094D02*
X88454819Y-129857142D01*
X88454819Y-129857142D02*
X88502438Y-129761904D01*
X88502438Y-129761904D02*
X88550057Y-129714285D01*
X88550057Y-129714285D02*
X88645295Y-129666666D01*
X88645295Y-129666666D02*
X88788152Y-129666666D01*
X88788152Y-129666666D02*
X88883390Y-129714285D01*
X88883390Y-129714285D02*
X88931009Y-129761904D01*
X88931009Y-129761904D02*
X88978628Y-129857142D01*
X88978628Y-129857142D02*
X88978628Y-130238094D01*
X88454819Y-129333332D02*
X88454819Y-128714285D01*
X88454819Y-128714285D02*
X88835771Y-129047618D01*
X88835771Y-129047618D02*
X88835771Y-128904761D01*
X88835771Y-128904761D02*
X88883390Y-128809523D01*
X88883390Y-128809523D02*
X88931009Y-128761904D01*
X88931009Y-128761904D02*
X89026247Y-128714285D01*
X89026247Y-128714285D02*
X89264342Y-128714285D01*
X89264342Y-128714285D02*
X89359580Y-128761904D01*
X89359580Y-128761904D02*
X89407200Y-128809523D01*
X89407200Y-128809523D02*
X89454819Y-128904761D01*
X89454819Y-128904761D02*
X89454819Y-129190475D01*
X89454819Y-129190475D02*
X89407200Y-129285713D01*
X89407200Y-129285713D02*
X89359580Y-129333332D01*
X91454819Y-129666666D02*
X90978628Y-129999999D01*
X91454819Y-130238094D02*
X90454819Y-130238094D01*
X90454819Y-130238094D02*
X90454819Y-129857142D01*
X90454819Y-129857142D02*
X90502438Y-129761904D01*
X90502438Y-129761904D02*
X90550057Y-129714285D01*
X90550057Y-129714285D02*
X90645295Y-129666666D01*
X90645295Y-129666666D02*
X90788152Y-129666666D01*
X90788152Y-129666666D02*
X90883390Y-129714285D01*
X90883390Y-129714285D02*
X90931009Y-129761904D01*
X90931009Y-129761904D02*
X90978628Y-129857142D01*
X90978628Y-129857142D02*
X90978628Y-130238094D01*
X90788152Y-128809523D02*
X91454819Y-128809523D01*
X90407200Y-129047618D02*
X91121485Y-129285713D01*
X91121485Y-129285713D02*
X91121485Y-128666666D01*
X95333333Y-87649819D02*
X95000000Y-87173628D01*
X94761905Y-87649819D02*
X94761905Y-86649819D01*
X94761905Y-86649819D02*
X95142857Y-86649819D01*
X95142857Y-86649819D02*
X95238095Y-86697438D01*
X95238095Y-86697438D02*
X95285714Y-86745057D01*
X95285714Y-86745057D02*
X95333333Y-86840295D01*
X95333333Y-86840295D02*
X95333333Y-86983152D01*
X95333333Y-86983152D02*
X95285714Y-87078390D01*
X95285714Y-87078390D02*
X95238095Y-87126009D01*
X95238095Y-87126009D02*
X95142857Y-87173628D01*
X95142857Y-87173628D02*
X94761905Y-87173628D01*
X96285714Y-87649819D02*
X95714286Y-87649819D01*
X96000000Y-87649819D02*
X96000000Y-86649819D01*
X96000000Y-86649819D02*
X95904762Y-86792676D01*
X95904762Y-86792676D02*
X95809524Y-86887914D01*
X95809524Y-86887914D02*
X95714286Y-86935533D01*
X88914819Y-83008094D02*
X87914819Y-83008094D01*
X87914819Y-83008094D02*
X87914819Y-82769999D01*
X87914819Y-82769999D02*
X87962438Y-82627142D01*
X87962438Y-82627142D02*
X88057676Y-82531904D01*
X88057676Y-82531904D02*
X88152914Y-82484285D01*
X88152914Y-82484285D02*
X88343390Y-82436666D01*
X88343390Y-82436666D02*
X88486247Y-82436666D01*
X88486247Y-82436666D02*
X88676723Y-82484285D01*
X88676723Y-82484285D02*
X88771961Y-82531904D01*
X88771961Y-82531904D02*
X88867200Y-82627142D01*
X88867200Y-82627142D02*
X88914819Y-82769999D01*
X88914819Y-82769999D02*
X88914819Y-83008094D01*
X88010057Y-82055713D02*
X87962438Y-82008094D01*
X87962438Y-82008094D02*
X87914819Y-81912856D01*
X87914819Y-81912856D02*
X87914819Y-81674761D01*
X87914819Y-81674761D02*
X87962438Y-81579523D01*
X87962438Y-81579523D02*
X88010057Y-81531904D01*
X88010057Y-81531904D02*
X88105295Y-81484285D01*
X88105295Y-81484285D02*
X88200533Y-81484285D01*
X88200533Y-81484285D02*
X88343390Y-81531904D01*
X88343390Y-81531904D02*
X88914819Y-82103332D01*
X88914819Y-82103332D02*
X88914819Y-81484285D01*
X95954819Y-141333333D02*
X96669104Y-141333333D01*
X96669104Y-141333333D02*
X96811961Y-141380952D01*
X96811961Y-141380952D02*
X96907200Y-141476190D01*
X96907200Y-141476190D02*
X96954819Y-141619047D01*
X96954819Y-141619047D02*
X96954819Y-141714285D01*
X96050057Y-140904761D02*
X96002438Y-140857142D01*
X96002438Y-140857142D02*
X95954819Y-140761904D01*
X95954819Y-140761904D02*
X95954819Y-140523809D01*
X95954819Y-140523809D02*
X96002438Y-140428571D01*
X96002438Y-140428571D02*
X96050057Y-140380952D01*
X96050057Y-140380952D02*
X96145295Y-140333333D01*
X96145295Y-140333333D02*
X96240533Y-140333333D01*
X96240533Y-140333333D02*
X96383390Y-140380952D01*
X96383390Y-140380952D02*
X96954819Y-140952380D01*
X96954819Y-140952380D02*
X96954819Y-140333333D01*
X82833333Y-87994819D02*
X82500000Y-87518628D01*
X82261905Y-87994819D02*
X82261905Y-86994819D01*
X82261905Y-86994819D02*
X82642857Y-86994819D01*
X82642857Y-86994819D02*
X82738095Y-87042438D01*
X82738095Y-87042438D02*
X82785714Y-87090057D01*
X82785714Y-87090057D02*
X82833333Y-87185295D01*
X82833333Y-87185295D02*
X82833333Y-87328152D01*
X82833333Y-87328152D02*
X82785714Y-87423390D01*
X82785714Y-87423390D02*
X82738095Y-87471009D01*
X82738095Y-87471009D02*
X82642857Y-87518628D01*
X82642857Y-87518628D02*
X82261905Y-87518628D01*
X83214286Y-87090057D02*
X83261905Y-87042438D01*
X83261905Y-87042438D02*
X83357143Y-86994819D01*
X83357143Y-86994819D02*
X83595238Y-86994819D01*
X83595238Y-86994819D02*
X83690476Y-87042438D01*
X83690476Y-87042438D02*
X83738095Y-87090057D01*
X83738095Y-87090057D02*
X83785714Y-87185295D01*
X83785714Y-87185295D02*
X83785714Y-87280533D01*
X83785714Y-87280533D02*
X83738095Y-87423390D01*
X83738095Y-87423390D02*
X83166667Y-87994819D01*
X83166667Y-87994819D02*
X83785714Y-87994819D01*
X98414819Y-83008094D02*
X97414819Y-83008094D01*
X97414819Y-83008094D02*
X97414819Y-82769999D01*
X97414819Y-82769999D02*
X97462438Y-82627142D01*
X97462438Y-82627142D02*
X97557676Y-82531904D01*
X97557676Y-82531904D02*
X97652914Y-82484285D01*
X97652914Y-82484285D02*
X97843390Y-82436666D01*
X97843390Y-82436666D02*
X97986247Y-82436666D01*
X97986247Y-82436666D02*
X98176723Y-82484285D01*
X98176723Y-82484285D02*
X98271961Y-82531904D01*
X98271961Y-82531904D02*
X98367200Y-82627142D01*
X98367200Y-82627142D02*
X98414819Y-82769999D01*
X98414819Y-82769999D02*
X98414819Y-83008094D01*
X98414819Y-81484285D02*
X98414819Y-82055713D01*
X98414819Y-81769999D02*
X97414819Y-81769999D01*
X97414819Y-81769999D02*
X97557676Y-81865237D01*
X97557676Y-81865237D02*
X97652914Y-81960475D01*
X97652914Y-81960475D02*
X97700533Y-82055713D01*
X88619047Y-89731009D02*
X88761904Y-89778628D01*
X88761904Y-89778628D02*
X88809523Y-89826247D01*
X88809523Y-89826247D02*
X88857142Y-89921485D01*
X88857142Y-89921485D02*
X88857142Y-90064342D01*
X88857142Y-90064342D02*
X88809523Y-90159580D01*
X88809523Y-90159580D02*
X88761904Y-90207200D01*
X88761904Y-90207200D02*
X88666666Y-90254819D01*
X88666666Y-90254819D02*
X88285714Y-90254819D01*
X88285714Y-90254819D02*
X88285714Y-89254819D01*
X88285714Y-89254819D02*
X88619047Y-89254819D01*
X88619047Y-89254819D02*
X88714285Y-89302438D01*
X88714285Y-89302438D02*
X88761904Y-89350057D01*
X88761904Y-89350057D02*
X88809523Y-89445295D01*
X88809523Y-89445295D02*
X88809523Y-89540533D01*
X88809523Y-89540533D02*
X88761904Y-89635771D01*
X88761904Y-89635771D02*
X88714285Y-89683390D01*
X88714285Y-89683390D02*
X88619047Y-89731009D01*
X88619047Y-89731009D02*
X88285714Y-89731009D01*
X89190476Y-89254819D02*
X89857142Y-89254819D01*
X89857142Y-89254819D02*
X89190476Y-90254819D01*
X89190476Y-90254819D02*
X89857142Y-90254819D01*
X90761904Y-90254819D02*
X90190476Y-90254819D01*
X90476190Y-90254819D02*
X90476190Y-89254819D01*
X90476190Y-89254819D02*
X90380952Y-89397676D01*
X90380952Y-89397676D02*
X90285714Y-89492914D01*
X90285714Y-89492914D02*
X90190476Y-89540533D01*
X85309048Y-94533866D02*
X86070953Y-94533866D01*
X85690000Y-94914819D02*
X85690000Y-94152914D01*
X89666666Y-132354819D02*
X89666666Y-133069104D01*
X89666666Y-133069104D02*
X89619047Y-133211961D01*
X89619047Y-133211961D02*
X89523809Y-133307200D01*
X89523809Y-133307200D02*
X89380952Y-133354819D01*
X89380952Y-133354819D02*
X89285714Y-133354819D01*
X90047619Y-132354819D02*
X90666666Y-132354819D01*
X90666666Y-132354819D02*
X90333333Y-132735771D01*
X90333333Y-132735771D02*
X90476190Y-132735771D01*
X90476190Y-132735771D02*
X90571428Y-132783390D01*
X90571428Y-132783390D02*
X90619047Y-132831009D01*
X90619047Y-132831009D02*
X90666666Y-132926247D01*
X90666666Y-132926247D02*
X90666666Y-133164342D01*
X90666666Y-133164342D02*
X90619047Y-133259580D01*
X90619047Y-133259580D02*
X90571428Y-133307200D01*
X90571428Y-133307200D02*
X90476190Y-133354819D01*
X90476190Y-133354819D02*
X90190476Y-133354819D01*
X90190476Y-133354819D02*
X90095238Y-133307200D01*
X90095238Y-133307200D02*
X90047619Y-133259580D01*
X88738095Y-105314819D02*
X88738095Y-106124342D01*
X88738095Y-106124342D02*
X88785714Y-106219580D01*
X88785714Y-106219580D02*
X88833333Y-106267200D01*
X88833333Y-106267200D02*
X88928571Y-106314819D01*
X88928571Y-106314819D02*
X89119047Y-106314819D01*
X89119047Y-106314819D02*
X89214285Y-106267200D01*
X89214285Y-106267200D02*
X89261904Y-106219580D01*
X89261904Y-106219580D02*
X89309523Y-106124342D01*
X89309523Y-106124342D02*
X89309523Y-105314819D01*
X90309523Y-106314819D02*
X89738095Y-106314819D01*
X90023809Y-106314819D02*
X90023809Y-105314819D01*
X90023809Y-105314819D02*
X89928571Y-105457676D01*
X89928571Y-105457676D02*
X89833333Y-105552914D01*
X89833333Y-105552914D02*
X89738095Y-105600533D01*
X82954819Y-141333333D02*
X83669104Y-141333333D01*
X83669104Y-141333333D02*
X83811961Y-141380952D01*
X83811961Y-141380952D02*
X83907200Y-141476190D01*
X83907200Y-141476190D02*
X83954819Y-141619047D01*
X83954819Y-141619047D02*
X83954819Y-141714285D01*
X83954819Y-140333333D02*
X83954819Y-140904761D01*
X83954819Y-140619047D02*
X82954819Y-140619047D01*
X82954819Y-140619047D02*
X83097676Y-140714285D01*
X83097676Y-140714285D02*
X83192914Y-140809523D01*
X83192914Y-140809523D02*
X83240533Y-140904761D01*
D11*
%TO.C,D2*%
X86045000Y-79710000D02*
X82955000Y-79710000D01*
X84500000Y-85260000D02*
G75*
G02*
X82955170Y-79710000I0J2990000D01*
G01*
X86044830Y-79710000D02*
G75*
G02*
X84500000Y-85260000I-1544830J-2560000D01*
G01*
X87000000Y-82270000D02*
G75*
G02*
X82000000Y-82270000I-2500000J0D01*
G01*
X82000000Y-82270000D02*
G75*
G02*
X87000000Y-82270000I2500000J0D01*
G01*
%TO.C,J2*%
X97940000Y-134240000D02*
X99000000Y-134240000D01*
X97940000Y-135175000D02*
X97940000Y-134240000D01*
X97940000Y-136385000D02*
X106060000Y-136385000D01*
X97940000Y-142855000D02*
X97940000Y-136385000D01*
X97940000Y-142855000D02*
X106060000Y-142855000D01*
X98060000Y-142855000D02*
X98060000Y-136385000D01*
X98174118Y-142855000D02*
X98174118Y-136385000D01*
X98288236Y-142855000D02*
X98288236Y-136385000D01*
X98402354Y-142855000D02*
X98402354Y-136385000D01*
X98516472Y-142855000D02*
X98516472Y-136385000D01*
X98630590Y-142855000D02*
X98630590Y-136385000D01*
X98640000Y-136385000D02*
X98640000Y-136110000D01*
X98744708Y-142855000D02*
X98744708Y-136385000D01*
X98858826Y-142855000D02*
X98858826Y-136385000D01*
X98972944Y-142855000D02*
X98972944Y-136385000D01*
X99087062Y-142855000D02*
X99087062Y-136385000D01*
X99201180Y-142855000D02*
X99201180Y-136385000D01*
X99315298Y-142855000D02*
X99315298Y-136385000D01*
X99360000Y-136385000D02*
X99360000Y-136110000D01*
X99429416Y-142855000D02*
X99429416Y-136385000D01*
X99543534Y-142855000D02*
X99543534Y-136385000D01*
X99657652Y-142855000D02*
X99657652Y-136385000D01*
X99771770Y-142855000D02*
X99771770Y-136385000D01*
X99885888Y-142855000D02*
X99885888Y-136385000D01*
X100000000Y-142855000D02*
X100000000Y-136385000D01*
X100640000Y-136385000D02*
X100640000Y-136037917D01*
X101360000Y-136385000D02*
X101360000Y-136037917D01*
X102000000Y-142855000D02*
X102000000Y-136385000D01*
X102640000Y-136385000D02*
X102640000Y-136037917D01*
X103360000Y-136385000D02*
X103360000Y-136037917D01*
X104000000Y-142855000D02*
X104000000Y-136385000D01*
X104640000Y-136385000D02*
X104640000Y-136037917D01*
X105360000Y-136385000D02*
X105360000Y-136037917D01*
X106060000Y-142855000D02*
X106060000Y-136385000D01*
%TO.C,D1*%
X95545000Y-79710000D02*
X92455000Y-79710000D01*
X94000000Y-85260000D02*
G75*
G02*
X92455170Y-79710000I0J2990000D01*
G01*
X95544830Y-79710000D02*
G75*
G02*
X94000000Y-85260000I-1544830J-2560000D01*
G01*
X96500000Y-82270000D02*
G75*
G02*
X91500000Y-82270000I-2500000J0D01*
G01*
X91500000Y-82270000D02*
G75*
G02*
X96500000Y-82270000I2500000J0D01*
G01*
%TO.C,BZ1*%
X95600000Y-97000000D02*
G75*
G02*
X83400000Y-97000000I-6100000J0D01*
G01*
X83400000Y-97000000D02*
G75*
G02*
X95600000Y-97000000I6100000J0D01*
G01*
%TO.C,J3*%
X85330000Y-137750000D02*
X85330000Y-136050000D01*
X94670000Y-137750000D02*
X94670000Y-136050000D01*
%TO.C,U1*%
X90500000Y-106860000D02*
G75*
G02*
X88500000Y-106860000I-1000000J0D01*
G01*
X84360000Y-106800000D02*
X94640000Y-106800000D01*
X94640000Y-117200000D01*
X84360000Y-117200000D01*
X84360000Y-106800000D01*
X92150000Y-117140000D02*
X92150000Y-106860000D01*
X92150000Y-106860000D02*
X90500000Y-106860000D01*
X88500000Y-106860000D02*
X86850000Y-106860000D01*
X86850000Y-117140000D02*
X92150000Y-117140000D01*
X86850000Y-106860000D02*
X86850000Y-117140000D01*
%TO.C,J1*%
X73940000Y-134240000D02*
X75000000Y-134240000D01*
X73940000Y-135175000D02*
X73940000Y-134240000D01*
X73940000Y-136385000D02*
X82060000Y-136385000D01*
X73940000Y-142855000D02*
X73940000Y-136385000D01*
X73940000Y-142855000D02*
X82060000Y-142855000D01*
X74060000Y-142855000D02*
X74060000Y-136385000D01*
X74174118Y-142855000D02*
X74174118Y-136385000D01*
X74288236Y-142855000D02*
X74288236Y-136385000D01*
X74402354Y-142855000D02*
X74402354Y-136385000D01*
X74516472Y-142855000D02*
X74516472Y-136385000D01*
X74630590Y-142855000D02*
X74630590Y-136385000D01*
X74640000Y-136385000D02*
X74640000Y-136110000D01*
X74744708Y-142855000D02*
X74744708Y-136385000D01*
X74858826Y-142855000D02*
X74858826Y-136385000D01*
X74972944Y-142855000D02*
X74972944Y-136385000D01*
X75087062Y-142855000D02*
X75087062Y-136385000D01*
X75201180Y-142855000D02*
X75201180Y-136385000D01*
X75315298Y-142855000D02*
X75315298Y-136385000D01*
X75360000Y-136385000D02*
X75360000Y-136110000D01*
X75429416Y-142855000D02*
X75429416Y-136385000D01*
X75543534Y-142855000D02*
X75543534Y-136385000D01*
X75657652Y-142855000D02*
X75657652Y-136385000D01*
X75771770Y-142855000D02*
X75771770Y-136385000D01*
X75885888Y-142855000D02*
X75885888Y-136385000D01*
X76000000Y-142855000D02*
X76000000Y-136385000D01*
X76640000Y-136385000D02*
X76640000Y-136037917D01*
X77360000Y-136385000D02*
X77360000Y-136037917D01*
X78000000Y-142855000D02*
X78000000Y-136385000D01*
X78640000Y-136385000D02*
X78640000Y-136037917D01*
X79360000Y-136385000D02*
X79360000Y-136037917D01*
X80000000Y-142855000D02*
X80000000Y-136385000D01*
X80640000Y-136385000D02*
X80640000Y-136037917D01*
X81360000Y-136385000D02*
X81360000Y-136037917D01*
X82060000Y-142855000D02*
X82060000Y-136385000D01*
%TD*%
M02*
