M48
; DRILL file {KiCad 9.0.7} date 2026-04-02T16:44:40-0700
; FORMAT={-:-/ absolute / metric / decimal}
; #@! TF.CreationDate,2026-04-02T16:44:40-07:00
; #@! TF.GenerationSoftware,Kicad,Pcbnew,9.0.7
; #@! TF.FileFunction,Plated,1,2,PTH
FMAT,2
METRIC
; #@! TA.AperFunction,Plated,PTH,ViaDrill
T1C0.300
; #@! TA.AperFunction,Plated,PTH,ComponentDrill
T2C0.600
; #@! TA.AperFunction,Plated,PTH,ComponentDrill
T3C0.800
; #@! TA.AperFunction,Plated,PTH,ComponentDrill
T4C0.900
; #@! TA.AperFunction,Plated,PTH,ComponentDrill
T5C1.000
%
G90
G05
T1
X83.5Y-127.0
X83.5Y-130.5
X87.0Y-117.5
X88.5Y-132.5
X89.0Y-86.0
X91.5Y-132.5
X105.0Y-127.5
T3
X75.0Y-135.175
X77.0Y-135.175
X79.0Y-135.175
X81.0Y-135.175
X85.69Y-108.19
X85.69Y-110.73
X85.69Y-113.27
X85.69Y-115.81
X93.31Y-108.19
X93.31Y-110.73
X93.31Y-113.27
X93.31Y-115.81
X99.0Y-135.175
X101.0Y-135.175
X103.0Y-135.175
X105.0Y-135.175
T4
X84.5Y-81.0
X84.5Y-83.54
X94.0Y-81.0
X94.0Y-83.54
T5
X85.7Y-97.0
X93.3Y-97.0
T2
G00X85.68Y-134.7
M15
G01X85.68Y-135.3
M16
G05
G00X85.68Y-138.5
M15
G01X85.68Y-139.1
M16
G05
G00X94.32Y-134.7
M15
G01X94.32Y-135.3
M16
G05
G00X94.32Y-138.5
M15
G01X94.32Y-139.1
M16
G05
M30
