%TF.GenerationSoftware,KiCad,Pcbnew,9.0.7*%
%TF.CreationDate,2026-04-02T16:43:37-07:00*%
%TF.ProjectId,WaterLevelDetector_v5_tiny,57617465-724c-4657-9665-6c4465746563,rev?*%
%TF.SameCoordinates,Original*%
%TF.FileFunction,Copper,L1,Top*%
%TF.FilePolarity,Positive*%
%FSLAX46Y46*%
G04 Gerber Fmt 4.6, Leading zero omitted, Abs format (unit mm)*
G04 Created by KiCad (PCBNEW 9.0.7) date 2026-04-02 16:43:37*
%MOMM*%
%LPD*%
G01*
G04 APERTURE LIST*
G04 Aperture macros list*
%AMRoundRect*
0 Rectangle with rounded corners*
0 $1 Rounding radius*
0 $2 $3 $4 $5 $6 $7 $8 $9 X,Y pos of 4 corners*
0 Add a 4 corners polygon primitive as box body*
4,1,4,$2,$3,$4,$5,$6,$7,$8,$9,$2,$3,0*
0 Add four circle primitives for the rounded corners*
1,1,$1+$1,$2,$3*
1,1,$1+$1,$4,$5*
1,1,$1+$1,$6,$7*
1,1,$1+$1,$8,$9*
0 Add four rect primitives between the rounded corners*
20,1,$1+$1,$2,$3,$4,$5,0*
20,1,$1+$1,$4,$5,$6,$7,0*
20,1,$1+$1,$6,$7,$8,$9,0*
20,1,$1+$1,$8,$9,$2,$3,0*%
G04 Aperture macros list end*
%TA.AperFunction,SMDPad,CuDef*%
%ADD10RoundRect,0.100000X0.100000X-0.130000X0.100000X0.130000X-0.100000X0.130000X-0.100000X-0.130000X0*%
%TD*%
%TA.AperFunction,SMDPad,CuDef*%
%ADD11RoundRect,0.100000X-0.100000X0.130000X-0.100000X-0.130000X0.100000X-0.130000X0.100000X0.130000X0*%
%TD*%
%TA.AperFunction,ComponentPad*%
%ADD12R,1.800000X1.800000*%
%TD*%
%TA.AperFunction,ComponentPad*%
%ADD13C,1.800000*%
%TD*%
%TA.AperFunction,ComponentPad*%
%ADD14R,1.350000X1.350000*%
%TD*%
%TA.AperFunction,ComponentPad*%
%ADD15C,1.350000*%
%TD*%
%TA.AperFunction,ComponentPad*%
%ADD16R,2.000000X2.000000*%
%TD*%
%TA.AperFunction,ComponentPad*%
%ADD17C,2.000000*%
%TD*%
%TA.AperFunction,SMDPad,CuDef*%
%ADD18RoundRect,0.175000X-0.175000X-0.425000X0.175000X-0.425000X0.175000X0.425000X-0.175000X0.425000X0*%
%TD*%
%TA.AperFunction,SMDPad,CuDef*%
%ADD19RoundRect,0.190000X0.190000X0.410000X-0.190000X0.410000X-0.190000X-0.410000X0.190000X-0.410000X0*%
%TD*%
%TA.AperFunction,SMDPad,CuDef*%
%ADD20RoundRect,0.200000X0.200000X0.400000X-0.200000X0.400000X-0.200000X-0.400000X0.200000X-0.400000X0*%
%TD*%
%TA.AperFunction,SMDPad,CuDef*%
%ADD21RoundRect,0.175000X0.175000X0.425000X-0.175000X0.425000X-0.175000X-0.425000X0.175000X-0.425000X0*%
%TD*%
%TA.AperFunction,SMDPad,CuDef*%
%ADD22RoundRect,0.190000X-0.190000X-0.410000X0.190000X-0.410000X0.190000X0.410000X-0.190000X0.410000X0*%
%TD*%
%TA.AperFunction,SMDPad,CuDef*%
%ADD23RoundRect,0.200000X-0.200000X-0.400000X0.200000X-0.400000X0.200000X0.400000X-0.200000X0.400000X0*%
%TD*%
%TA.AperFunction,HeatsinkPad*%
%ADD24O,1.100000X1.700000*%
%TD*%
%TA.AperFunction,ComponentPad*%
%ADD25C,1.600000*%
%TD*%
%TA.AperFunction,ComponentPad*%
%ADD26RoundRect,0.250000X-0.550000X-0.550000X0.550000X-0.550000X0.550000X0.550000X-0.550000X0.550000X0*%
%TD*%
%TA.AperFunction,ViaPad*%
%ADD27C,0.600000*%
%TD*%
%TA.AperFunction,Conductor*%
%ADD28C,0.200000*%
%TD*%
G04 APERTURE END LIST*
D10*
%TO.P,R3,1*%
%TO.N,Net-(J3-CC1)*%
X89000000Y-131500000D03*
%TO.P,R3,2*%
%TO.N,Net-(BZ1--)*%
X89000000Y-130860000D03*
%TD*%
%TO.P,R4,1*%
%TO.N,Net-(J3-CC2)*%
X91000000Y-131500000D03*
%TO.P,R4,2*%
%TO.N,Net-(BZ1--)*%
X91000000Y-130860000D03*
%TD*%
D11*
%TO.P,R1,1*%
%TO.N,Net-(D1-A)*%
X94000000Y-86875000D03*
%TO.P,R1,2*%
%TO.N,Net-(U1-PB2)*%
X94000000Y-87515000D03*
%TD*%
D12*
%TO.P,D2,1,K*%
%TO.N,Net-(BZ1--)*%
X84500000Y-81000000D03*
D13*
%TO.P,D2,2,A*%
%TO.N,Net-(D2-A)*%
X84500000Y-83540000D03*
%TD*%
D14*
%TO.P,J2,1,Pin_1*%
%TO.N,unconnected-(J2-Pin_1-Pad1)*%
X99000000Y-135175000D03*
D15*
%TO.P,J2,2,Pin_2*%
%TO.N,Net-(BZ1--)*%
X101000000Y-135175000D03*
%TO.P,J2,3,Pin_3*%
%TO.N,Net-(J2-Pin_3)*%
X103000000Y-135175000D03*
%TO.P,J2,4,Pin_4*%
%TO.N,Net-(J1-Pin_4)*%
X105000000Y-135175000D03*
%TD*%
D10*
%TO.P,R2,1*%
%TO.N,Net-(U1-XTAL1{slash}PB3)*%
X84500000Y-87860000D03*
%TO.P,R2,2*%
%TO.N,Net-(D2-A)*%
X84500000Y-87220000D03*
%TD*%
D12*
%TO.P,D1,1,K*%
%TO.N,Net-(BZ1--)*%
X94000000Y-81000000D03*
D13*
%TO.P,D1,2,A*%
%TO.N,Net-(D1-A)*%
X94000000Y-83540000D03*
%TD*%
D16*
%TO.P,BZ1,1,+*%
%TO.N,Net-(BZ1-+)*%
X85700000Y-97000000D03*
D17*
%TO.P,BZ1,2,-*%
%TO.N,Net-(BZ1--)*%
X93300000Y-97000000D03*
%TD*%
D18*
%TO.P,J3,A5,CC1*%
%TO.N,Net-(J3-CC1)*%
X89500000Y-134920000D03*
D19*
%TO.P,J3,A9,VBUS*%
%TO.N,Net-(J1-Pin_4)*%
X91520000Y-134920000D03*
D20*
%TO.P,J3,A12,GND*%
%TO.N,Net-(BZ1--)*%
X92750000Y-134920000D03*
D21*
%TO.P,J3,B5,CC2*%
%TO.N,Net-(J3-CC2)*%
X90500000Y-134920000D03*
D22*
%TO.P,J3,B9,VBUS*%
%TO.N,Net-(J1-Pin_4)*%
X88480000Y-134920000D03*
D23*
%TO.P,J3,B12,GND*%
%TO.N,Net-(BZ1--)*%
X87250000Y-134920000D03*
D24*
%TO.P,J3,S1,SHIELD*%
X85680000Y-135000000D03*
X85680000Y-138800000D03*
X94320000Y-135000000D03*
X94320000Y-138800000D03*
%TD*%
D25*
%TO.P,U1,8,VCC*%
%TO.N,Net-(J1-Pin_4)*%
X93310000Y-108190000D03*
%TO.P,U1,7,PB2*%
%TO.N,Net-(U1-PB2)*%
X93310000Y-110730000D03*
%TO.P,U1,6,PB1*%
%TO.N,Net-(J2-Pin_3)*%
X93310000Y-113270000D03*
%TO.P,U1,5,AREF/PB0*%
%TO.N,Net-(J1-Pin_3)*%
X93310000Y-115810000D03*
%TO.P,U1,4,GND*%
%TO.N,Net-(BZ1--)*%
X85690000Y-115810000D03*
%TO.P,U1,3,XTAL2/PB4*%
%TO.N,Net-(BZ1-+)*%
X85690000Y-113270000D03*
%TO.P,U1,2,XTAL1/PB3*%
%TO.N,Net-(U1-XTAL1{slash}PB3)*%
X85690000Y-110730000D03*
D26*
%TO.P,U1,1,~{RESET}/PB5*%
%TO.N,unconnected-(U1-~{RESET}{slash}PB5-Pad1)*%
X85690000Y-108190000D03*
%TD*%
D14*
%TO.P,J1,1,Pin_1*%
%TO.N,unconnected-(J1-Pin_1-Pad1)*%
X75000000Y-135175000D03*
D15*
%TO.P,J1,2,Pin_2*%
%TO.N,Net-(BZ1--)*%
X77000000Y-135175000D03*
%TO.P,J1,3,Pin_3*%
%TO.N,Net-(J1-Pin_3)*%
X79000000Y-135175000D03*
%TO.P,J1,4,Pin_4*%
%TO.N,Net-(J1-Pin_4)*%
X81000000Y-135175000D03*
%TD*%
D27*
%TO.N,Net-(BZ1--)*%
X83500000Y-130500000D03*
X89000000Y-86000000D03*
X87000000Y-117500000D03*
%TO.N,Net-(J1-Pin_4)*%
X91500000Y-132500000D03*
X83500000Y-127000000D03*
X88500000Y-132500000D03*
X105000000Y-127500000D03*
%TD*%
D28*
%TO.N,Net-(BZ1-+)*%
X82000000Y-100500000D02*
X85500000Y-97000000D01*
X85690000Y-113270000D02*
X82000000Y-109580000D01*
X85500000Y-97000000D02*
X85700000Y-97000000D01*
X82000000Y-109580000D02*
X82000000Y-100500000D01*
%TO.N,Net-(BZ1--)*%
X85680000Y-131820000D02*
X86500000Y-131000000D01*
X77000000Y-135175000D02*
X77000000Y-124500000D01*
X77000000Y-124500000D02*
X85690000Y-115810000D01*
X87250000Y-131750000D02*
X88140000Y-130860000D01*
X93360000Y-130860000D02*
X91860000Y-130860000D01*
X94320000Y-131820000D02*
X93360000Y-130860000D01*
X89000000Y-85000000D02*
X89000000Y-86000000D01*
X94320000Y-138800000D02*
X94320000Y-135000000D01*
X85690000Y-115810000D02*
X87000000Y-117120000D01*
X92750000Y-131750000D02*
X91860000Y-130860000D01*
X99000000Y-131000000D02*
X93500000Y-131000000D01*
X89000000Y-83000000D02*
X89000000Y-85000000D01*
X89500000Y-130860000D02*
X90500000Y-130860000D01*
X94320000Y-135000000D02*
X94320000Y-131820000D01*
X87250000Y-134920000D02*
X87250000Y-131750000D01*
X85680000Y-135000000D02*
X85680000Y-131820000D01*
X92750000Y-134920000D02*
X92750000Y-131750000D01*
X86640000Y-130860000D02*
X88140000Y-130860000D01*
X93500000Y-131000000D02*
X93360000Y-130860000D01*
X86500000Y-131000000D02*
X86640000Y-130860000D01*
X101000000Y-133000000D02*
X99000000Y-131000000D01*
X87000000Y-81000000D02*
X89000000Y-83000000D01*
X101000000Y-135175000D02*
X101000000Y-133000000D01*
X91000000Y-81000000D02*
X89000000Y-83000000D01*
X94000000Y-81000000D02*
X91000000Y-81000000D01*
X83500000Y-130500000D02*
X84000000Y-131000000D01*
X87000000Y-117120000D02*
X87000000Y-117500000D01*
X85680000Y-138800000D02*
X85680000Y-135000000D01*
X84500000Y-81000000D02*
X87000000Y-81000000D01*
X91860000Y-130860000D02*
X90500000Y-130860000D01*
X88140000Y-130860000D02*
X89500000Y-130860000D01*
X84000000Y-131000000D02*
X86500000Y-131000000D01*
%TO.N,Net-(D1-A)*%
X94000000Y-86875000D02*
X94000000Y-83540000D01*
%TO.N,Net-(D2-A)*%
X84500000Y-87220000D02*
X84500000Y-83540000D01*
%TO.N,Net-(J1-Pin_3)*%
X79000000Y-135175000D02*
X79000000Y-127000000D01*
X90190000Y-115810000D02*
X93310000Y-115810000D01*
X79000000Y-127000000D02*
X90190000Y-115810000D01*
%TO.N,Net-(J1-Pin_4)*%
X91520000Y-132520000D02*
X91500000Y-132500000D01*
X88480000Y-134920000D02*
X88480000Y-132520000D01*
X105000000Y-135175000D02*
X105000000Y-127500000D01*
X81000000Y-129500000D02*
X83500000Y-127000000D01*
X91520000Y-134920000D02*
X91520000Y-132520000D01*
X81000000Y-135175000D02*
X81000000Y-129500000D01*
X88480000Y-132520000D02*
X88500000Y-132500000D01*
%TO.N,Net-(J2-Pin_3)*%
X103000000Y-135175000D02*
X103000000Y-119500000D01*
X103000000Y-119500000D02*
X96770000Y-113270000D01*
X96770000Y-113270000D02*
X93310000Y-113270000D01*
%TO.N,Net-(J3-CC2)*%
X90500000Y-134920000D02*
X90500000Y-132000000D01*
X90500000Y-132000000D02*
X91000000Y-131500000D01*
%TO.N,Net-(J3-CC1)*%
X89500000Y-134920000D02*
X89500000Y-132000000D01*
X89500000Y-132000000D02*
X89000000Y-131500000D01*
%TO.N,Net-(U1-PB2)*%
X91730000Y-110730000D02*
X91000000Y-110000000D01*
X91000000Y-110000000D02*
X91000000Y-92000000D01*
X93310000Y-110730000D02*
X91730000Y-110730000D01*
X94000000Y-89000000D02*
X94000000Y-87515000D01*
X91000000Y-92000000D02*
X94000000Y-89000000D01*
%TO.N,Net-(U1-XTAL1{slash}PB3)*%
X87270000Y-110730000D02*
X88000000Y-110000000D01*
X88000000Y-91360000D02*
X84500000Y-87860000D01*
X88000000Y-110000000D02*
X88000000Y-91360000D01*
X85690000Y-110730000D02*
X87270000Y-110730000D01*
%TD*%
M02*
