%TF.GenerationSoftware,KiCad,Pcbnew,9.0.7*%
%TF.CreationDate,2026-04-02T16:43:37-07:00*%
%TF.ProjectId,WaterLevelDetector_v5_tiny,57617465-724c-4657-9665-6c4465746563,rev?*%
%TF.SameCoordinates,Original*%
%TF.FileFunction,Soldermask,Top*%
%TF.FilePolarity,Negative*%
%FSLAX46Y46*%
G04 Gerber Fmt 4.6, Leading zero omitted, Abs format (unit mm)*
G04 Created by KiCad (PCBNEW 9.0.7) date 2026-04-02 16:43:37*
%MOMM*%
%LPD*%
G01*
G04 APERTURE LIST*
G04 Aperture macros list*
%AMRoundRect*
0 Rectangle with rounded corners*
0 $1 Rounding radius*
0 $2 $3 $4 $5 $6 $7 $8 $9 X,Y pos of 4 corners*
0 Add a 4 corners polygon primitive as box body*
4,1,4,$2,$3,$4,$5,$6,$7,$8,$9,$2,$3,0*
0 Add four circle primitives for the rounded corners*
1,1,$1+$1,$2,$3*
1,1,$1+$1,$4,$5*
1,1,$1+$1,$6,$7*
1,1,$1+$1,$8,$9*
0 Add four rect primitives between the rounded corners*
20,1,$1+$1,$2,$3,$4,$5,0*
20,1,$1+$1,$4,$5,$6,$7,0*
20,1,$1+$1,$6,$7,$8,$9,0*
20,1,$1+$1,$8,$9,$2,$3,0*%
G04 Aperture macros list end*
%ADD10RoundRect,0.100000X0.100000X-0.130000X0.100000X0.130000X-0.100000X0.130000X-0.100000X-0.130000X0*%
%ADD11RoundRect,0.100000X-0.100000X0.130000X-0.100000X-0.130000X0.100000X-0.130000X0.100000X0.130000X0*%
%ADD12R,1.800000X1.800000*%
%ADD13C,1.800000*%
%ADD14R,1.350000X1.350000*%
%ADD15C,1.350000*%
%ADD16R,2.000000X2.000000*%
%ADD17C,2.000000*%
%ADD18RoundRect,0.175000X-0.175000X-0.425000X0.175000X-0.425000X0.175000X0.425000X-0.175000X0.425000X0*%
%ADD19RoundRect,0.190000X0.190000X0.410000X-0.190000X0.410000X-0.190000X-0.410000X0.190000X-0.410000X0*%
%ADD20RoundRect,0.200000X0.200000X0.400000X-0.200000X0.400000X-0.200000X-0.400000X0.200000X-0.400000X0*%
%ADD21RoundRect,0.175000X0.175000X0.425000X-0.175000X0.425000X-0.175000X-0.425000X0.175000X-0.425000X0*%
%ADD22RoundRect,0.190000X-0.190000X-0.410000X0.190000X-0.410000X0.190000X0.410000X-0.190000X0.410000X0*%
%ADD23RoundRect,0.200000X-0.200000X-0.400000X0.200000X-0.400000X0.200000X0.400000X-0.200000X0.400000X0*%
%ADD24O,1.100000X1.700000*%
%ADD25C,1.600000*%
%ADD26RoundRect,0.250000X-0.550000X-0.550000X0.550000X-0.550000X0.550000X0.550000X-0.550000X0.550000X0*%
G04 APERTURE END LIST*
D10*
%TO.C,R3*%
X89000000Y-131500000D03*
X89000000Y-130860000D03*
%TD*%
%TO.C,R4*%
X91000000Y-131500000D03*
X91000000Y-130860000D03*
%TD*%
D11*
%TO.C,R1*%
X94000000Y-86875000D03*
X94000000Y-87515000D03*
%TD*%
D12*
%TO.C,D2*%
X84500000Y-81000000D03*
D13*
X84500000Y-83540000D03*
%TD*%
D14*
%TO.C,J2*%
X99000000Y-135175000D03*
D15*
X101000000Y-135175000D03*
X103000000Y-135175000D03*
X105000000Y-135175000D03*
%TD*%
D10*
%TO.C,R2*%
X84500000Y-87860000D03*
X84500000Y-87220000D03*
%TD*%
D12*
%TO.C,D1*%
X94000000Y-81000000D03*
D13*
X94000000Y-83540000D03*
%TD*%
D16*
%TO.C,BZ1*%
X85700000Y-97000000D03*
D17*
X93300000Y-97000000D03*
%TD*%
D18*
%TO.C,J3*%
X89500000Y-134920000D03*
D19*
X91520000Y-134920000D03*
D20*
X92750000Y-134920000D03*
D21*
X90500000Y-134920000D03*
D22*
X88480000Y-134920000D03*
D23*
X87250000Y-134920000D03*
D24*
X85680000Y-135000000D03*
X85680000Y-138800000D03*
X94320000Y-135000000D03*
X94320000Y-138800000D03*
%TD*%
D25*
%TO.C,U1*%
X93310000Y-108190000D03*
X93310000Y-110730000D03*
X93310000Y-113270000D03*
X93310000Y-115810000D03*
X85690000Y-115810000D03*
X85690000Y-113270000D03*
X85690000Y-110730000D03*
D26*
X85690000Y-108190000D03*
%TD*%
D14*
%TO.C,J1*%
X75000000Y-135175000D03*
D15*
X77000000Y-135175000D03*
X79000000Y-135175000D03*
X81000000Y-135175000D03*
%TD*%
M02*
